<?xml version="1.0" encoding="UTF-8" standalone="no"?>
<svg
   width="213"
   height="48"
   viewBox="0 0 213 48"
   fill="none"
   version="1.1"
   id="svg14"
   sodipodi:docname="d_d_logo.svg"
   inkscape:version="1.1.2 (b8e25be833, 2022-02-05)"
   xmlns:inkscape="http://www.inkscape.org/namespaces/inkscape"
   xmlns:sodipodi="http://sodipodi.sourceforge.net/DTD/sodipodi-0.dtd"
   xmlns="http://www.w3.org/2000/svg"
   xmlns:svg="http://www.w3.org/2000/svg">
  <defs
     id="defs18">
    <clipPath
       clipPathUnits="userSpaceOnUse"
       id="clipPath18978">
      <path
         id="path18980"
         style="fill:#ffffff;stroke:#000000;stroke-width:0.2;stroke-miterlimit:3.2"
         d="M 65.996094,14.25 V 30.453125 H 181.46094 c -1.12252,-0.719365 -2.23114,-1.477308 -3.41992,-2.050781 -0.0679,-0.03277 0.54597,2.370212 -0.13672,-0.44336 -0.0406,-0.619604 -0.0936,-1.237094 -0.1211,-1.857422 -0.004,-0.08732 0.0194,-0.174708 0.0274,-0.261718 0.0144,-0.151345 0.0161,-0.302848 0.0391,-0.453125 0.002,-0.01248 0.0245,0.03993 0.0254,0.02734 0.0391,-0.546942 -0.0368,-0.707796 -0.13672,-1.341796 -0.39687,-2.429286 -0.96835,-4.852809 -0.97461,-7.328125 -0.74968,-0.844773 -1.30171,-1.683628 -1.67969,-2.494141 z m 114.449216,9.248047 c -0.73664,0.284706 -1.74836,1.452972 -1.21093,1.251953 0.54769,-0.20487 1.04955,-0.504403 1.54296,-0.822266 -0.11534,-0.141346 -0.22559,-0.285044 -0.33203,-0.429687 z m 11.35547,5.785156 c -0.0109,0.03365 -0.0214,0.06645 -0.0332,0.09961 0.28266,0.357338 0.59383,0.716362 0.91406,1.070313 h 1.02539 c -0.0152,-0.02133 -0.0317,-0.04105 -0.0469,-0.0625 -0.74479,-0.430346 -1.36659,-0.800657 -1.85938,-1.107422 z m -0.70508,0.859375 c -0.15229,0.109073 -0.3123,0.207373 -0.46875,0.310547 h 0.64649 c -0.0601,-0.103209 -0.12083,-0.205588 -0.17774,-0.310547 z" />
    </clipPath>
  </defs>
  <sodipodi:namedview
     id="namedview16"
     pagecolor="#ffffff"
     bordercolor="#999999"
     borderopacity="1"
     inkscape:pageshadow="0"
     inkscape:pageopacity="0"
     inkscape:pagecheckerboard="0"
     showgrid="false"
     inkscape:zoom="4.9671362"
     inkscape:cx="116.26418"
     inkscape:cy="24.058129"
     inkscape:window-width="1920"
     inkscape:window-height="1002"
     inkscape:window-x="-8"
     inkscape:window-y="-8"
     inkscape:window-maximized="1"
     inkscape:current-layer="svg14" />
  <line
     x1="60.5"
     y1="8.71777"
     x2="60.5"
     y2="35.7178"
     stroke="white"
     id="line2" />
  <rect
     width="1"
     height="47.435299"
     rx="23.7176"
     fill="#ffffff"
     id="rect4"
     x="0"
     y="0" />
  <rect
     x="28.164801"
     y="30.388201"
     width="1"
     height="9.6352901"
     transform="rotate(90,28.1648,30.3882)"
     fill="#000000"
     id="rect6" />
  <path
     fill-rule="evenodd"
     clip-rule="evenodd"
     d="M4.44702 14.8235V30.3882H9.94045C14.2746 30.3882 17.7882 26.9039 17.7882 22.6058C17.7882 18.3078 14.2746 14.8235 9.94045 14.8235H4.44702ZM7.81034 18.1588L7.81034 27.0529H9.94045C12.4171 27.0529 14.4249 25.0619 14.4249 22.6058C14.4249 20.1498 12.4171 18.1588 9.94045 18.1588H7.81034Z"
     fill="black"
     id="path8" />
  <path
     fill-rule="evenodd"
     clip-rule="evenodd"
     d="M30.3882 14.8235V30.3882H35.8816C40.2158 30.3882 43.7294 26.9039 43.7294 22.6058C43.7294 18.3078 40.2158 14.8235 35.8816 14.8235H30.3882ZM33.7515 18.1588L33.7515 27.0529H35.8816C38.3583 27.0529 40.366 25.0619 40.366 22.6058C40.366 20.1498 38.3583 18.1588 35.8816 18.1588H33.7515Z"
     fill="black"
     id="path10" />
  <path
     d="m 69.8228,27 h -2.6563 l 0.0166,-2.0918 h 2.6397 c 0.6031,0 1.1123,-0.1383 1.5273,-0.415 0.415,-0.2823 0.7305,-0.6973 0.9463,-1.2452 0.2158,-0.5533 0.3237,-1.2257 0.3237,-2.017 v -0.5562 c 0,-0.5977 -0.0609,-1.1234 -0.1826,-1.5771 -0.1217,-0.4594 -0.3016,-0.844 -0.5396,-1.1539 -0.2379,-0.3098 -0.534,-0.5423 -0.8881,-0.6972 -0.3487,-0.155 -0.7499,-0.2324 -1.2036,-0.2324 h -2.6895 v -2.1001 h 2.6895 c 0.819,0 1.566,0.1383 2.2412,0.415 0.6806,0.2767 1.2672,0.6724 1.7597,1.187 0.4981,0.5147 0.8827,1.1234 1.1538,1.8262 0.2712,0.7028 0.4068,1.4858 0.4068,2.3491 v 0.5396 c 0,0.8577 -0.1356,1.6407 -0.4068,2.3491 -0.2711,0.7028 -0.6557,1.3115 -1.1538,1.8261 -0.4925,0.5092 -1.0763,0.9021 -1.7514,1.1788 C 71.3805,26.8617 70.6362,27 69.8228,27 Z M 68.7021,14.9141 V 27 h -2.706 V 14.9141 Z m 12.418,12.2519 c -0.7139,0 -1.353,-0.1134 -1.9175,-0.3403 -0.5644,-0.2269 -1.0431,-0.5396 -1.436,-0.938 -0.3874,-0.404 -0.6834,-0.8688 -0.8882,-1.3945 -0.2047,-0.5258 -0.3071,-1.0874 -0.3071,-1.6851 v -0.3154 c 0,-0.6696 0.0941,-1.2866 0.2822,-1.8511 0.1882,-0.5645 0.4621,-1.0542 0.8218,-1.4692 0.3652,-0.4206 0.8135,-0.7443 1.3447,-0.9712 0.5313,-0.2324 1.1372,-0.3487 1.8179,-0.3487 0.6364,0 1.2036,0.1052 1.7017,0.3155 0.498,0.2047 0.9186,0.5008 1.2617,0.8882 0.3431,0.3818 0.6032,0.8439 0.7802,1.3862 0.1827,0.5368 0.274,1.14 0.274,1.8096 v 1.0625 H 77.6172 V 21.646 h 4.6982 v -0.1992 c 0,-0.3155 -0.0581,-0.5921 -0.1743,-0.8301 -0.1107,-0.238 -0.2767,-0.4206 -0.498,-0.5479 -0.2159,-0.1328 -0.4898,-0.1992 -0.8218,-0.1992 -0.3154,0 -0.5783,0.0664 -0.7886,0.1992 -0.2103,0.1329 -0.3791,0.321 -0.5063,0.5645 -0.1218,0.238 -0.2103,0.5174 -0.2657,0.8384 -0.0553,0.3154 -0.083,0.6557 -0.083,1.021 v 0.3154 c 0,0.3486 0.0471,0.6668 0.1411,0.9546 0.0941,0.2878 0.2325,0.534 0.4151,0.7388 0.1826,0.2047 0.404,0.3652 0.664,0.4814 0.2601,0.1162 0.5562,0.1743 0.8882,0.1743 0.4095,0 0.7997,-0.0774 1.1704,-0.2324 0.3708,-0.1605 0.6918,-0.4095 0.9629,-0.7471 l 1.2119,1.3863 c -0.1826,0.2656 -0.4399,0.5229 -0.7719,0.7719 -0.3265,0.2435 -0.7194,0.4427 -1.1787,0.5977 -0.4593,0.1549 -0.9795,0.2324 -1.5606,0.2324 z m 8.0269,-2.0005 1.8759,-7.1469 H 93.746 L 90.7656,27 H 89.1304 Z M 87.9351,18.0186 89.8027,25.1738 89.8193,27 h -1.6352 l -2.98,-8.9814 z M 98.817,27.166 c -0.713,0 -1.353,-0.1134 -1.917,-0.3403 -0.565,-0.2269 -1.043,-0.5396 -1.436,-0.938 -0.388,-0.404 -0.684,-0.8688 -0.888,-1.3945 -0.205,-0.5258 -0.307,-1.0874 -0.307,-1.6851 v -0.3154 c 0,-0.6696 0.094,-1.2866 0.282,-1.8511 0.188,-0.5645 0.462,-1.0542 0.822,-1.4692 0.365,-0.4206 0.813,-0.7443 1.344,-0.9712 0.532,-0.2324 1.137,-0.3487 1.818,-0.3487 0.637,0 1.204,0.1052 1.702,0.3155 0.498,0.2047 0.918,0.5008 1.262,0.8882 0.343,0.3818 0.603,0.8439 0.78,1.3862 0.182,0.5368 0.274,1.14 0.274,1.8096 v 1.0625 H 95.314 V 21.646 h 4.699 v -0.1992 c 0,-0.3155 -0.058,-0.5921 -0.175,-0.8301 -0.11,-0.238 -0.276,-0.4206 -0.498,-0.5479 -0.215,-0.1328 -0.489,-0.1992 -0.821,-0.1992 -0.316,0 -0.579,0.0664 -0.789,0.1992 -0.21,0.1329 -0.379,0.321 -0.506,0.5645 -0.122,0.238 -0.211,0.5174 -0.266,0.8384 -0.055,0.3154 -0.083,0.6557 -0.083,1.021 v 0.3154 c 0,0.3486 0.047,0.6668 0.141,0.9546 0.094,0.2878 0.233,0.534 0.415,0.7388 0.183,0.2047 0.404,0.3652 0.664,0.4814 0.26,0.1162 0.556,0.1743 0.888,0.1743 0.41,0 0.8,-0.0774 1.171,-0.2324 0.371,-0.1605 0.692,-0.4095 0.963,-0.7471 l 1.212,1.3863 c -0.183,0.2656 -0.44,0.5229 -0.772,0.7719 -0.327,0.2435 -0.72,0.4427 -1.179,0.5977 -0.459,0.1549 -0.98,0.2324 -1.561,0.2324 z M 106.545,14.25 V 27 h -2.598 V 14.25 Z m 1.495,8.3506 v -0.1743 c 0,-0.6586 0.094,-1.2645 0.282,-1.8179 0.188,-0.5589 0.465,-1.0431 0.83,-1.4526 0.365,-0.4095 0.813,-0.7277 1.345,-0.9546 0.531,-0.2324 1.14,-0.3487 1.826,-0.3487 0.697,0 1.311,0.1163 1.843,0.3487 0.536,0.2269 0.987,0.5451 1.353,0.9546 0.365,0.4095 0.641,0.8937 0.83,1.4526 0.188,0.5534 0.282,1.1593 0.282,1.8179 v 0.1743 c 0,0.653 -0.094,1.2589 -0.282,1.8179 -0.189,0.5533 -0.465,1.0376 -0.83,1.4526 -0.366,0.4095 -0.814,0.7277 -1.345,0.9546 -0.531,0.2269 -1.143,0.3403 -1.835,0.3403 -0.686,0 -1.297,-0.1134 -1.834,-0.3403 -0.537,-0.2269 -0.988,-0.5451 -1.353,-0.9546 -0.365,-0.415 -0.642,-0.8993 -0.83,-1.4526 -0.188,-0.559 -0.282,-1.1649 -0.282,-1.8179 z m 2.598,-0.1743 v 0.1743 c 0,0.3542 0.027,0.6862 0.083,0.9961 0.061,0.3099 0.157,0.581 0.29,0.8135 0.133,0.2324 0.307,0.415 0.523,0.5478 0.222,0.1273 0.49,0.1909 0.805,0.1909 0.316,0 0.581,-0.0636 0.797,-0.1909 0.216,-0.1328 0.39,-0.3154 0.523,-0.5478 0.133,-0.2325 0.227,-0.5036 0.282,-0.8135 0.061,-0.3099 0.092,-0.6419 0.092,-0.9961 v -0.1743 c 0,-0.3487 -0.031,-0.6752 -0.092,-0.9795 -0.055,-0.3099 -0.149,-0.5838 -0.282,-0.8218 -0.133,-0.238 -0.31,-0.4233 -0.531,-0.5562 -0.216,-0.1328 -0.484,-0.1992 -0.805,-0.1992 -0.31,0 -0.573,0.0664 -0.789,0.1992 -0.216,0.1329 -0.39,0.3182 -0.523,0.5562 -0.133,0.238 -0.229,0.5119 -0.29,0.8218 -0.056,0.3043 -0.083,0.6308 -0.083,0.9795 z m 9.952,-2.6812 v 10.708 H 118 V 18.0186 h 2.416 z m 5.603,2.6646 v 0.1743 c 0,0.653 -0.074,1.2589 -0.224,1.8179 -0.149,0.5533 -0.373,1.0376 -0.672,1.4526 -0.293,0.415 -0.656,0.7388 -1.088,0.9712 -0.431,0.2269 -0.932,0.3403 -1.502,0.3403 -0.542,0 -1.013,-0.1134 -1.411,-0.3403 -0.393,-0.2324 -0.725,-0.5534 -0.996,-0.9629 -0.266,-0.415 -0.482,-0.8882 -0.648,-1.4194 -0.16,-0.5368 -0.285,-1.1096 -0.373,-1.7183 v -0.3403 c 0.088,-0.6475 0.216,-1.2479 0.382,-1.8013 0.166,-0.5534 0.381,-1.0321 0.647,-1.436 0.266,-0.4095 0.595,-0.7277 0.988,-0.9546 0.393,-0.2269 0.86,-0.3404 1.403,-0.3404 0.564,0 1.065,0.1079 1.502,0.3238 0.437,0.2158 0.803,0.5257 1.096,0.9297 0.299,0.3984 0.523,0.8771 0.672,1.436 0.15,0.5589 0.224,1.1815 0.224,1.8677 z m -2.598,0.1743 v -0.1743 c 0,-0.3653 -0.027,-0.7001 -0.083,-1.0044 -0.055,-0.3099 -0.144,-0.5783 -0.265,-0.8052 -0.122,-0.2324 -0.283,-0.4123 -0.482,-0.5396 -0.199,-0.1272 -0.443,-0.1909 -0.73,-0.1909 -0.31,0 -0.573,0.0498 -0.789,0.1494 -0.216,0.0997 -0.39,0.2463 -0.523,0.44 -0.133,0.1881 -0.23,0.4206 -0.29,0.6972 -0.056,0.2767 -0.086,0.5922 -0.092,0.9463 v 0.9131 c 0.006,0.4151 0.064,0.7858 0.175,1.1123 0.116,0.321 0.296,0.5728 0.539,0.7554 0.249,0.1771 0.581,0.2656 0.996,0.2656 0.294,0 0.537,-0.0636 0.731,-0.1909 0.199,-0.1328 0.357,-0.3182 0.473,-0.5561 0.122,-0.238 0.207,-0.5119 0.257,-0.8218 0.056,-0.3099 0.083,-0.6419 0.083,-0.9961 z m 8.21,4.582 c -0.714,0 -1.353,-0.1134 -1.918,-0.3403 -0.564,-0.2269 -1.043,-0.5396 -1.436,-0.938 -0.387,-0.404 -0.683,-0.8688 -0.888,-1.3945 -0.205,-0.5258 -0.307,-1.0874 -0.307,-1.6851 v -0.3154 c 0,-0.6696 0.094,-1.2866 0.282,-1.8511 0.188,-0.5645 0.462,-1.0542 0.822,-1.4692 0.365,-0.4206 0.813,-0.7443 1.345,-0.9712 0.531,-0.2324 1.137,-0.3487 1.817,-0.3487 0.637,0 1.204,0.1052 1.702,0.3155 0.498,0.2047 0.919,0.5008 1.262,0.8882 0.343,0.3818 0.603,0.8439 0.78,1.3862 0.183,0.5368 0.274,1.14 0.274,1.8096 v 1.0625 h -7.238 V 21.646 H 133 v -0.1992 c 0,-0.3155 -0.058,-0.5921 -0.174,-0.8301 -0.111,-0.238 -0.277,-0.4206 -0.498,-0.5479 -0.216,-0.1328 -0.49,-0.1992 -0.822,-0.1992 -0.316,0 -0.578,0.0664 -0.789,0.1992 -0.21,0.1329 -0.379,0.321 -0.506,0.5645 -0.122,0.238 -0.21,0.5174 -0.266,0.8384 -0.055,0.3154 -0.083,0.6557 -0.083,1.021 v 0.3154 c 0,0.3486 0.047,0.6668 0.141,0.9546 0.094,0.2878 0.233,0.534 0.415,0.7388 0.183,0.2047 0.404,0.3652 0.665,0.4814 0.26,0.1162 0.556,0.1743 0.888,0.1743 0.409,0 0.799,-0.0774 1.17,-0.2324 0.371,-0.1605 0.692,-0.4095 0.963,-0.7471 l 1.212,1.3863 c -0.183,0.2656 -0.44,0.5229 -0.772,0.7719 -0.327,0.2435 -0.719,0.4427 -1.179,0.5977 -0.459,0.1549 -0.979,0.2324 -1.56,0.2324 z M 139.4,20.1104 V 27 h -2.59 v -8.9814 h 2.432 z m 2.681,-2.1583 -0.041,2.4156 c -0.111,-0.0166 -0.255,-0.0305 -0.432,-0.0415 -0.177,-0.0166 -0.329,-0.0249 -0.457,-0.0249 -0.332,0 -0.619,0.0415 -0.863,0.1245 -0.238,0.0775 -0.437,0.1937 -0.598,0.3486 -0.155,0.155 -0.271,0.3486 -0.348,0.5811 -0.078,0.2269 -0.116,0.4897 -0.116,0.7885 l -0.49,-0.2407 c 0,-0.5921 0.058,-1.1344 0.174,-1.6269 0.116,-0.4925 0.285,-0.9187 0.507,-1.2784 0.221,-0.3652 0.492,-0.6474 0.813,-0.8466 0.321,-0.1993 0.686,-0.2989 1.096,-0.2989 0.132,0 0.268,0.0083 0.406,0.0249 0.139,0.0166 0.255,0.0415 0.349,0.0747 z M 151.336,27 h -2.656 l 0.017,-2.0918 h 2.639 c 0.604,0 1.113,-0.1383 1.528,-0.415 0.415,-0.2823 0.73,-0.6973 0.946,-1.2452 0.216,-0.5533 0.324,-1.2257 0.324,-2.017 v -0.5562 c 0,-0.5977 -0.061,-1.1234 -0.183,-1.5771 -0.122,-0.4594 -0.301,-0.844 -0.539,-1.1539 -0.238,-0.3098 -0.534,-0.5423 -0.889,-0.6972 -0.348,-0.155 -0.749,-0.2324 -1.203,-0.2324 h -2.69 v -2.1001 h 2.69 c 0.819,0 1.566,0.1383 2.241,0.415 0.681,0.2767 1.267,0.6724 1.76,1.187 0.498,0.5147 0.882,1.1234 1.154,1.8262 0.271,0.7028 0.406,1.4858 0.406,2.3491 v 0.5396 c 0,0.8577 -0.135,1.6407 -0.406,2.3491 -0.272,0.7028 -0.656,1.3115 -1.154,1.8261 -0.493,0.5092 -1.077,0.9021 -1.752,1.1788 C 152.894,26.8617 152.15,27 151.336,27 Z m -1.12,-12.0859 V 27 H 147.51 V 14.9141 Z m 12.941,9.9443 v -3.8516 c 0,-0.2711 -0.042,-0.5035 -0.125,-0.6972 -0.083,-0.1937 -0.213,-0.3459 -0.39,-0.4566 -0.177,-0.1106 -0.407,-0.166 -0.689,-0.166 -0.238,0 -0.445,0.0415 -0.622,0.1245 -0.172,0.083 -0.305,0.202 -0.399,0.357 -0.088,0.1549 -0.133,0.3458 -0.133,0.5727 h -2.59 c 0,-0.404 0.092,-0.7803 0.274,-1.1289 0.183,-0.3486 0.443,-0.6558 0.781,-0.9214 0.343,-0.2656 0.752,-0.4704 1.228,-0.6142 0.476,-0.1495 1.01,-0.2242 1.602,-0.2242 0.703,0 1.328,0.119 1.876,0.357 0.554,0.2324 0.991,0.5838 1.312,1.0542 0.321,0.4648 0.481,1.0514 0.481,1.7597 v 3.7603 c 0,0.5423 0.031,0.9684 0.091,1.2783 0.067,0.3044 0.161,0.57 0.283,0.7969 V 27 h -2.615 c -0.122,-0.2601 -0.213,-0.5811 -0.274,-0.9629 -0.061,-0.3874 -0.091,-0.7803 -0.091,-1.1787 z m 0.323,-3.3369 0.017,1.4277 h -1.287 c -0.287,0 -0.536,0.036 -0.747,0.1079 -0.204,0.072 -0.37,0.1716 -0.498,0.2989 -0.127,0.1217 -0.221,0.2656 -0.282,0.4316 -0.055,0.1605 -0.083,0.3376 -0.083,0.5312 0,0.1827 0.044,0.3487 0.133,0.4981 0.088,0.1439 0.21,0.2573 0.365,0.3403 0.155,0.083 0.335,0.1245 0.54,0.1245 0.337,0 0.625,-0.0664 0.863,-0.1992 0.243,-0.1328 0.432,-0.2933 0.564,-0.4814 0.133,-0.1937 0.2,-0.3736 0.2,-0.5396 l 0.622,1.0791 c -0.099,0.2214 -0.221,0.451 -0.365,0.689 -0.144,0.2324 -0.327,0.451 -0.548,0.6558 -0.221,0.1992 -0.49,0.3624 -0.805,0.4897 -0.31,0.1273 -0.683,0.1909 -1.121,0.1909 -0.564,0 -1.076,-0.1134 -1.535,-0.3403 -0.46,-0.2324 -0.828,-0.5506 -1.104,-0.9546 -0.271,-0.404 -0.407,-0.8688 -0.407,-1.3945 0,-0.4704 0.086,-0.8882 0.257,-1.2535 0.172,-0.3652 0.429,-0.6751 0.772,-0.9296 0.349,-0.2546 0.786,-0.4455 1.312,-0.5728 0.525,-0.1328 1.14,-0.1992 1.843,-0.1992 z m 3.611,1.0791 v -0.1743 c 0,-0.6586 0.094,-1.2645 0.283,-1.8179 0.188,-0.5589 0.464,-1.0431 0.83,-1.4526 0.365,-0.4095 0.813,-0.7277 1.344,-0.9546 0.532,-0.2324 1.14,-0.3487 1.827,-0.3487 0.697,0 1.311,0.1163 1.842,0.3487 0.537,0.2269 0.988,0.5451 1.353,0.9546 0.366,0.4095 0.642,0.8937 0.83,1.4526 0.189,0.5534 0.283,1.1593 0.283,1.8179 v 0.1743 c 0,0.653 -0.094,1.2589 -0.283,1.8179 -0.188,0.5533 -0.464,1.0376 -0.83,1.4526 -0.365,0.4095 -0.813,0.7277 -1.344,0.9546 -0.532,0.2269 -1.143,0.3403 -1.835,0.3403 -0.686,0 -1.298,-0.1134 -1.834,-0.3403 -0.537,-0.2269 -0.988,-0.5451 -1.353,-0.9546 -0.366,-0.415 -0.642,-0.8993 -0.83,-1.4526 -0.189,-0.559 -0.283,-1.1649 -0.283,-1.8179 z m 2.598,-0.1743 v 0.1743 c 0,0.3542 0.028,0.6862 0.083,0.9961 0.061,0.3099 0.158,0.581 0.291,0.8135 0.133,0.2324 0.307,0.415 0.523,0.5478 0.221,0.1273 0.49,0.1909 0.805,0.1909 0.316,0 0.581,-0.0636 0.797,-0.1909 0.216,-0.1328 0.39,-0.3154 0.523,-0.5478 0.133,-0.2325 0.227,-0.5036 0.282,-0.8135 0.061,-0.3099 0.091,-0.6419 0.091,-0.9961 v -0.1743 c 0,-0.3487 -0.03,-0.6752 -0.091,-0.9795 -0.055,-0.3099 -0.149,-0.5838 -0.282,-0.8218 -0.133,-0.238 -0.31,-0.4233 -0.531,-0.5562 -0.216,-0.1328 -0.485,-0.1992 -0.805,-0.1992 -0.31,0 -0.573,0.0664 -0.789,0.1992 -0.216,0.1329 -0.39,0.3182 -0.523,0.5562 -0.133,0.238 -0.23,0.5119 -0.291,0.8218 -0.055,0.3043 -0.083,0.6308 -0.083,0.9795 z m 14.427,-7.5122 V 27 H 181.41 V 14.9141 Z m 4.757,5.0966 v 2.0918 h -5.512 v -2.0918 z m 0.531,-5.0966 v 2.1001 h -6.043 v -2.1001 z m 3.785,4.9887 V 27 h -2.59 v -8.9814 h 2.432 z m -0.332,2.291 -0.656,0.0166 c 0,-0.6308 0.075,-1.2091 0.224,-1.7348 0.155,-0.5313 0.379,-0.9933 0.673,-1.3862 0.293,-0.3929 0.655,-0.6973 1.087,-0.9131 0.437,-0.2159 0.941,-0.3238 1.511,-0.3238 0.398,0 0.761,0.0609 1.087,0.1827 0.327,0.1162 0.606,0.3016 0.839,0.5561 0.238,0.249 0.42,0.5755 0.547,0.9795 0.128,0.3984 0.191,0.8771 0.191,1.436 V 27 h -2.589 v -5.6777 c 0,-0.3985 -0.05,-0.7001 -0.15,-0.9048 -0.094,-0.2103 -0.232,-0.3542 -0.415,-0.4317 -0.183,-0.0774 -0.401,-0.1162 -0.656,-0.1162 -0.276,0 -0.523,0.0609 -0.738,0.1826 -0.211,0.1163 -0.388,0.2795 -0.532,0.4898 -0.144,0.2103 -0.252,0.4565 -0.323,0.7388 -0.067,0.2822 -0.1,0.5866 -0.1,0.913 z m 5.238,-0.1328 -0.822,0.0664 c 0,-0.6087 0.072,-1.1731 0.216,-1.6933 0.144,-0.5202 0.359,-0.9712 0.647,-1.353 0.288,-0.3874 0.645,-0.689 1.071,-0.9048 0.432,-0.2159 0.932,-0.3238 1.502,-0.3238 0.421,0 0.803,0.0609 1.146,0.1827 0.349,0.1217 0.647,0.3182 0.896,0.5893 0.255,0.2712 0.451,0.6281 0.59,1.0708 0.138,0.4372 0.207,0.974 0.207,1.6104 V 27 h -2.606 v -5.6943 c 0,-0.3929 -0.05,-0.6918 -0.15,-0.8965 -0.094,-0.2048 -0.232,-0.3459 -0.415,-0.4234 -0.177,-0.0774 -0.39,-0.1162 -0.639,-0.1162 -0.276,0 -0.517,0.0581 -0.722,0.1743 -0.205,0.1107 -0.376,0.2657 -0.515,0.4649 -0.138,0.1937 -0.24,0.4233 -0.307,0.689 -0.066,0.2656 -0.099,0.5533 -0.099,0.8632 z"
     fill="#ffffff"
     id="path12"
     clip-path="url(#clipPath18978)" />
  <text
     xml:space="preserve"
     style="font-style:normal;font-weight:normal;font-size:11.7646px;line-height:3.35;font-family:sans-serif;letter-spacing:-0.547782px;fill:#000000;fill-opacity:1;stroke:none;stroke-width:0.294135"
     x="179.57802"
     y="26.520939"
     id="text2722"><tspan
       sodipodi:role="line"
       id="tspan2720"
       x="179.57802"
       y="26.520939"
       style="font-style:normal;font-variant:normal;font-weight:bold;font-stretch:normal;font-family:sans-serif;-inkscape-font-specification:'sans-serif Bold';fill:#ffffff;stroke-width:0.294135">0xFM</tspan></text>
</svg>
